<svg id="visual" viewBox="0 0 960 540" width="960" height="540" xmlns="http://www.w3.org/2000/svg" xmlns:xlink="http://www.w3.org/1999/xlink" version="1.1"><rect x="0" y="0" width="960" height="540" fill="#4FACF7"></rect><path d="M0 436L20 442.2C40 448.3 80 460.7 120 461.5C160 462.3 200 451.7 240 438C280 424.3 320 407.7 360 409.2C400 410.7 440 430.3 480 430.8C520 431.3 560 412.7 600 415.7C640 418.7 680 443.3 720 443.7C760 444 800 420 840 406.7C880 393.3 920 390.7 940 389.3L960 388L960 541L940 541C920 541 880 541 840 541C800 541 760 541 720 541C680 541 640 541 600 541C560 541 520 541 480 541C440 541 400 541 360 541C320 541 280 541 240 541C200 541 160 541 120 541C80 541 40 541 20 541L0 541Z" fill="#0066FF" stroke-linecap="round" stroke-linejoin="miter"></path></svg>