<svg id="visual" viewBox="0 0 960 540" width="960" height="540" xmlns="http://www.w3.org/2000/svg" xmlns:xlink="http://www.w3.org/1999/xlink" version="1.1"><rect x="0" y="0" width="960" height="540" fill="#92c3f3"></rect><path d="M0 410L20 417.7C40 425.3 80 440.7 120 441.8C160 443 200 430 240 413C280 396 320 375 360 376.7C400 378.3 440 402.7 480 403.3C520 404 560 381 600 385C640 389 680 420 720 420.3C760 420.7 800 390.3 840 373.7C880 357 920 354 940 352.5L960 351L960 541L940 541C920 541 880 541 840 541C800 541 760 541 720 541C680 541 640 541 600 541C560 541 520 541 480 541C440 541 400 541 360 541C320 541 280 541 240 541C200 541 160 541 120 541C80 541 40 541 20 541L0 541Z" fill="#4FACF7" stroke-linecap="round" stroke-linejoin="miter"></path></svg>